<svg width="14" height="35" viewBox="0 0 14 35" fill="none" xmlns="http://www.w3.org/2000/svg">
<path d="M8.88212 9.57391V7.29004H4.44107V9.57391C2.21499 10.0124 0.555145 11.7373 0.555145 13.7995V33.2895C0.555145 33.3714 0.560697 33.805 0.965943 34.1568C1.2213 34.3784 1.57659 34.5182 1.96518 34.5182H11.3525C12.1352 34.5182 12.768 33.9689 12.768 33.2895V13.7995C12.768 11.7373 11.1026 10.0124 8.88212 9.57391ZM12.2185 33.7328H1.09917V23.4987C1.1991 23.5951 1.31012 23.6867 1.44336 23.7589V23.0314H12.2185V33.7328Z" stroke="#1A1A1A" stroke-width="2" stroke-miterlimit="10"/>
<path d="M9.29847 1.93211C9.29847 2.05257 9.18744 2.14412 9.05421 2.14412H8.88212V7.29004H4.44107V2.14412H4.26898C4.13575 2.14412 4.02472 2.05257 4.02472 1.93211C4.02472 1.81166 4.13575 1.72011 4.26898 1.72011H4.44107V1.22865C4.44107 0.814273 4.82411 0.481812 5.29597 0.481812H8.02167C8.49908 0.481812 8.88212 0.814273 8.88212 1.22865V1.72011H9.05421C9.18744 1.72011 9.29847 1.81648 9.29847 1.93211Z" fill="#1A1A1A" stroke="#1A1A1A" stroke-width="2" stroke-miterlimit="10"/>
<path d="M0.205414 21.4991C1.77644 21.1233 2.87004 21.2775 3.58616 21.4991C4.60206 21.8123 4.77415 22.2267 5.72897 22.3568C6.9003 22.5206 7.45543 22.0147 8.69893 21.8364C9.52607 21.716 10.764 21.7304 12.4128 22.4243" fill="#1A1A1A"/>
<path d="M0.205414 21.4991C1.77644 21.1233 2.87004 21.2775 3.58616 21.4991C4.60205 21.8123 4.77415 22.2267 5.72897 22.3568C6.9003 22.5206 7.45543 22.0147 8.69892 21.8364C9.52607 21.716 10.764 21.7304 12.4128 22.4243" stroke="#1A1A1A" stroke-width="2" stroke-miterlimit="10"/>
<path d="M12.3795 22.5255V33.4919H1.25463V23.2578C1.05478 23.0507 0.938202 22.8001 0.938202 22.5255C0.938202 22.0147 1.35455 21.5763 1.94854 21.3787C2.15949 21.3113 2.39265 21.2727 2.6369 21.2727C3.01439 21.2727 3.35858 21.3594 3.63614 21.504H3.64169C4.06359 21.7449 4.34116 22.1063 4.34116 22.5255H8.02168C8.25483 22.3713 8.5324 22.2556 8.83772 22.1882C9.52053 22.0388 10.2033 22.1834 10.6863 22.5255H12.3795Z" fill="#1A1A1A" stroke="#1A1A1A" stroke-miterlimit="10"/>
</svg>
