<svg width="15" height="37" viewBox="0 0 15 37" fill="none" xmlns="http://www.w3.org/2000/svg">
<path d="M9.32697 10.0921V7.80823H4.88592V10.0921C2.65984 10.5306 1 12.2555 1 14.3177V33.8077C1 33.8896 1.00555 34.3232 1.4108 34.675C1.66616 34.8966 2.02144 35.0363 2.41003 35.0363H11.7973C12.58 35.0363 13.2129 34.4871 13.2129 33.8077V14.3177C13.2129 12.2555 11.5475 10.5306 9.32697 10.0921ZM12.6633 34.251H1.54403V24.0169C1.64395 24.1133 1.75498 24.2048 1.88821 24.2771V23.5496H12.6633V34.251Z" stroke="#8B1E3F" stroke-width="2" stroke-miterlimit="10"/>
<path d="M9.74332 2.4503C9.74332 2.57076 9.6323 2.66231 9.49906 2.66231H9.32697V7.80823H4.88592V2.66231H4.71383C4.5806 2.66231 4.46957 2.57076 4.46957 2.4503C4.46957 2.32985 4.5806 2.2383 4.71383 2.2383H4.88592V1.74683C4.88592 1.33246 5.26896 1 5.74083 1H8.46652C8.94393 1 9.32697 1.33246 9.32697 1.74683V2.2383H9.49906C9.6323 2.2383 9.74332 2.33466 9.74332 2.4503Z" fill="#8B1E3F" stroke="#8B1E3F" stroke-width="2" stroke-miterlimit="10"/>
<path d="M0.650269 22.0173C2.22129 21.6415 3.3149 21.7957 4.03102 22.0173C5.04691 22.3305 5.219 22.7449 6.17383 22.875C7.34515 23.0388 7.90029 22.5329 9.14378 22.3546C9.97093 22.2342 11.2089 22.2486 12.8576 22.9424" fill="#8B1E3F"/>
<path d="M0.650269 22.0173C2.22129 21.6415 3.3149 21.7957 4.03102 22.0173C5.04691 22.3305 5.219 22.7449 6.17383 22.875C7.34515 23.0388 7.90029 22.5329 9.14378 22.3546C9.97093 22.2342 11.2089 22.2486 12.8576 22.9424" stroke="#8B1E3F" stroke-width="2" stroke-miterlimit="10"/>
<path d="M12.8243 23.0436V34.0101H1.69948V23.776C1.49963 23.5688 1.38306 23.3183 1.38306 23.0436C1.38306 22.5329 1.79941 22.0944 2.3934 21.8969C2.60435 21.8294 2.8375 21.7909 3.08176 21.7909C3.45925 21.7909 3.80343 21.8776 4.081 22.0222H4.08655C4.50845 22.2631 4.78601 22.6245 4.78601 23.0436H8.46653C8.69969 22.8895 8.97725 22.7738 9.28258 22.7064C9.96539 22.557 10.6482 22.7015 11.1312 23.0436H12.8243Z" fill="#8B1E3F" stroke="#8B1E3F" stroke-miterlimit="10"/>
</svg>
