<svg width="37" height="37" viewBox="0 0 37 37" fill="none" xmlns="http://www.w3.org/2000/svg">
<path d="M7.6978 10.0921V7.80823H4.12564V10.0921C2.33509 10.5306 1 12.2555 1 14.3177V33.8077C1 33.8896 1.00447 34.3232 1.33042 34.675C1.53582 34.8966 1.8216 35.0363 2.13416 35.0363H9.68481C10.3144 35.0363 10.8234 34.4871 10.8234 33.8077V14.3177C10.8234 12.2555 9.48388 10.5306 7.6978 10.0921ZM10.3814 34.251H1.43759V24.0169C1.51796 24.1133 1.60727 24.2048 1.71443 24.2771V23.5496H10.3814V34.251Z" stroke="#1A1A1A" stroke-width="2" stroke-miterlimit="10"/>
<path d="M8.03271 2.4503C8.03271 2.57076 7.94341 2.66231 7.83624 2.66231H7.69782V7.80823H4.12566V2.66231H3.98724C3.88008 2.66231 3.79077 2.57076 3.79077 2.4503C3.79077 2.32985 3.88008 2.2383 3.98724 2.2383H4.12566V1.74683C4.12566 1.33246 4.43376 1 4.8133 1H7.00571C7.38972 1 7.69782 1.33246 7.69782 1.74683V2.2383H7.83624C7.94341 2.2383 8.03271 2.33466 8.03271 2.4503Z" fill="#1A1A1A" stroke="#1A1A1A" stroke-width="2" stroke-miterlimit="10"/>
<path d="M0.718689 22.0173C1.98234 21.6415 2.86198 21.7957 3.43799 22.0173C4.25513 22.3305 4.39355 22.7449 5.16156 22.875C6.10372 23.0388 6.55024 22.5329 7.55044 22.3546C8.21576 22.2342 9.21149 22.2486 10.5377 22.9424" fill="#1A1A1A"/>
<path d="M0.718689 22.0173C1.98234 21.6415 2.86198 21.7957 3.43799 22.0173C4.25513 22.3305 4.39355 22.7449 5.16156 22.875C6.10372 23.0388 6.55024 22.5329 7.55044 22.3546C8.21576 22.2342 9.21149 22.2486 10.5377 22.9424" stroke="#1A1A1A" stroke-width="2" stroke-miterlimit="10"/>
<path d="M10.5109 23.0436V34.0101H1.56262V23.776C1.40187 23.5688 1.30811 23.3183 1.30811 23.0436C1.30811 22.5329 1.643 22.0944 2.12077 21.8969C2.29045 21.8294 2.47799 21.7909 2.67446 21.7909C2.97809 21.7909 3.25493 21.8776 3.47819 22.0222H3.48266C3.82201 22.2631 4.04527 22.6245 4.04527 23.0436H7.0057C7.19324 22.8895 7.4165 22.7738 7.66208 22.7064C8.2113 22.557 8.76052 22.7015 9.14899 23.0436H10.5109Z" fill="#1A1A1A" stroke="#1A1A1A" stroke-miterlimit="10"/>
<path d="M19.8025 10.0921V7.80823H16.2304V10.0921C14.4398 10.5306 13.1047 12.2555 13.1047 14.3177V33.8077C13.1047 33.8896 13.1092 34.3232 13.4352 34.675C13.6406 34.8966 13.9263 35.0363 14.2389 35.0363H21.7895C22.4191 35.0363 22.9282 34.4871 22.9282 33.8077V14.3177C22.9282 12.2555 21.5886 10.5306 19.8025 10.0921ZM22.4861 34.251H13.5423V24.0169C13.6227 24.1133 13.712 24.2048 13.8192 24.2771V23.5496H22.4861V34.251Z" stroke="#1A1A1A" stroke-width="2" stroke-miterlimit="10"/>
<path d="M20.1374 2.4503C20.1374 2.57076 20.0481 2.66231 19.941 2.66231H19.8026V7.80823H16.2304V2.66231H16.092C15.9848 2.66231 15.8955 2.57076 15.8955 2.4503C15.8955 2.32985 15.9848 2.2383 16.092 2.2383H16.2304V1.74683C16.2304 1.33246 16.5385 1 16.918 1H19.1105C19.4945 1 19.8026 1.33246 19.8026 1.74683V2.2383H19.941C20.0481 2.2383 20.1374 2.33466 20.1374 2.4503Z" fill="#1A1A1A" stroke="#1A1A1A" stroke-width="2" stroke-miterlimit="10"/>
<path d="M12.8234 22.0173C14.0871 21.6415 14.9667 21.7957 15.5427 22.0173C16.3599 22.3305 16.4983 22.7449 17.2663 22.875C18.2085 23.0388 18.655 22.5329 19.6552 22.3546C20.3205 22.2342 21.3162 22.2486 22.6424 22.9424" fill="#1A1A1A"/>
<path d="M12.8234 22.0173C14.0871 21.6415 14.9667 21.7957 15.5427 22.0173C16.3599 22.3305 16.4983 22.7449 17.2663 22.875C18.2085 23.0388 18.655 22.5329 19.6552 22.3546C20.3205 22.2342 21.3162 22.2486 22.6424 22.9424" stroke="#1A1A1A" stroke-width="2" stroke-miterlimit="10"/>
<path d="M22.6156 23.0436V34.0101H13.6674V23.776C13.5066 23.5688 13.4128 23.3183 13.4128 23.0436C13.4128 22.5329 13.7477 22.0944 14.2255 21.8969C14.3952 21.8294 14.5827 21.7909 14.7792 21.7909C15.0828 21.7909 15.3597 21.8776 15.5829 22.0222H15.5874C15.9267 22.2631 16.15 22.6245 16.15 23.0436H19.1104C19.298 22.8895 19.5212 22.7738 19.7668 22.7064C20.316 22.557 20.8653 22.7015 21.2537 23.0436H22.6156Z" fill="#1A1A1A" stroke="#1A1A1A" stroke-miterlimit="10"/>
<path d="M31.9073 10.0921V7.80823H28.3351V10.0921C26.5446 10.5306 25.2095 12.2555 25.2095 14.3177V33.8077C25.2095 33.8896 25.2139 34.3232 25.5399 34.675C25.7453 34.8966 26.0311 35.0363 26.3436 35.0363H33.8943C34.5239 35.0363 35.0329 34.4871 35.0329 33.8077V14.3177C35.0329 12.2555 33.6933 10.5306 31.9073 10.0921ZM34.5909 34.251H25.6471V24.0169C25.7274 24.1133 25.8167 24.2048 25.9239 24.2771V23.5496H34.5909V34.251Z" stroke="#1A1A1A" stroke-width="2" stroke-miterlimit="10"/>
<path d="M32.2422 2.4503C32.2422 2.57076 32.1529 2.66231 32.0457 2.66231H31.9073V7.80823H28.3351V2.66231H28.1967C28.0895 2.66231 28.0002 2.57076 28.0002 2.4503C28.0002 2.32985 28.0895 2.2383 28.1967 2.2383H28.3351V1.74683C28.3351 1.33246 28.6432 1 29.0228 1H31.2152C31.5992 1 31.9073 1.33246 31.9073 1.74683V2.2383H32.0457C32.1529 2.2383 32.2422 2.33466 32.2422 2.4503Z" fill="#1A1A1A" stroke="#1A1A1A" stroke-width="2" stroke-miterlimit="10"/>
<path d="M24.9282 22.0173C26.1918 21.6415 27.0715 21.7957 27.6475 22.0173C28.4646 22.3305 28.603 22.7449 29.371 22.875C30.3132 23.0388 30.7597 22.5329 31.7599 22.3546C32.4252 22.2342 33.421 22.2486 34.7471 22.9424" fill="#1A1A1A"/>
<path d="M24.9282 22.0173C26.1918 21.6415 27.0715 21.7957 27.6475 22.0173C28.4646 22.3305 28.603 22.7449 29.371 22.875C30.3132 23.0388 30.7597 22.5329 31.7599 22.3546C32.4252 22.2342 33.421 22.2486 34.7471 22.9424" stroke="#1A1A1A" stroke-width="2" stroke-miterlimit="10"/>
<path d="M34.7204 23.0436V34.0101H25.7721V23.776C25.6113 23.5688 25.5176 23.3183 25.5176 23.0436C25.5176 22.5329 25.8525 22.0944 26.3302 21.8969C26.4999 21.8294 26.6875 21.7909 26.8839 21.7909C27.1876 21.7909 27.4644 21.8776 27.6877 22.0222H27.6921C28.0315 22.2631 28.2547 22.6245 28.2547 23.0436H31.2152C31.4027 22.8895 31.626 22.7738 31.8716 22.7064C32.4208 22.557 32.97 22.7015 33.3585 23.0436H34.7204Z" fill="#1A1A1A" stroke="#1A1A1A" stroke-miterlimit="10"/>
</svg>
