<svg width="27" height="29" viewBox="0 0 27 29" fill="none" xmlns="http://www.w3.org/2000/svg">
<path d="M13.3283 9.17698e-05C12.8535 -0.00383261 12.3795 0.118099 11.9601 0.367523C9.26749 1.96233 6.30531 3.87838 3.22247 5.74442C3.22043 5.74583 3.2184 5.74726 3.21637 5.74869C1.70033 6.68193 0.471704 8.14769 0.260457 9.91434V9.91647C-0.239608 14.1541 -0.019357 18.4007 0.919134 22.6313C0.921097 22.6385 0.92313 22.6456 0.925232 22.6527C1.20535 23.8143 1.88061 24.8752 2.7183 25.7694C3.55598 26.6637 4.55754 27.3918 5.66404 27.7027C5.6708 27.7049 5.67758 27.7071 5.68437 27.7091C10.6986 29.0075 15.7384 29.0075 20.7526 27.7091C20.7594 27.7071 20.7662 27.7049 20.7729 27.7027C21.8795 27.3918 22.8811 26.664 23.7187 25.7694C24.5563 24.8749 25.2323 23.813 25.5118 22.6505C25.5132 22.6441 25.5145 22.6377 25.5158 22.6313C26.4565 18.3939 26.6778 14.1415 26.1745 9.89725L26.1725 9.89511C25.9613 8.14272 24.7486 6.68513 23.247 5.74869C23.245 5.74726 23.243 5.74583 23.2409 5.74442C20.2265 3.89475 17.331 1.99105 14.6944 0.386749C14.2782 0.132997 13.8031 0.00401636 13.3283 9.17698e-05ZM13.314 2.15982C13.4167 2.16085 13.5203 2.2007 13.6495 2.27945C16.2401 3.85578 19.1423 5.76157 22.1919 7.63284C23.2465 8.29318 24.0153 9.4178 24.107 10.1685C24.5794 14.1524 24.3749 18.1259 23.491 22.1165C23.3431 22.729 22.8662 23.5611 22.2346 24.2356C21.603 24.9101 20.8209 25.4235 20.2383 25.5879C19.4609 25.7886 18.6866 25.7549 17.9105 25.8891C18.3659 23.1309 18.3791 20.2685 17.8211 17.5385C17.8215 17.4544 17.8126 17.3706 17.7947 17.2886C17.7884 17.2591 17.7809 17.2299 17.7723 17.201C17.771 17.1953 17.7696 17.1896 17.7682 17.1839C17.7656 17.1754 17.7629 17.1668 17.7601 17.1583C17.7575 17.1511 17.7548 17.144 17.752 17.1369C17.7421 17.1101 17.7313 17.0838 17.7194 17.0579C17.7047 17.025 17.6884 16.9929 17.6707 16.9618C17.5761 16.7931 17.4402 16.6541 17.2772 16.5594C17.1141 16.4648 16.9299 16.4178 16.7436 16.4234C14.4933 15.3945 11.9844 15.4021 9.73401 16.4277C9.48388 16.409 9.23572 16.4857 9.03515 16.6439C8.83458 16.8021 8.69509 17.031 8.64232 17.2886C8.64107 17.2942 8.64154 17.3001 8.64028 17.3057C8.62467 17.3801 8.6165 17.456 8.61589 17.5321V17.5364C8.05746 20.267 8.07099 23.1302 8.52644 25.8891C7.75039 25.7549 6.97611 25.7886 6.19871 25.5879C5.61606 25.4235 4.83415 24.9101 4.20235 24.2356C3.57175 23.5624 3.09524 22.7326 2.94599 22.1208C2.06383 18.1365 1.85682 14.1651 2.32594 10.1878V10.1856C2.4174 9.42796 3.20274 8.29161 4.26944 7.63498C7.38419 5.74942 10.3448 3.83319 12.9827 2.2709H12.9847C13.1097 2.19658 13.2114 2.15879 13.314 2.15982ZM13.2185 17.7287C14.1124 17.7269 14.9853 18.0102 15.8268 18.3802C16.2964 20.9303 16.3016 23.6243 15.7983 26.1625C14.0797 26.3261 12.3573 26.3261 10.6387 26.1625C10.1362 23.6285 10.1409 20.9394 10.6082 18.393C11.4489 18.0184 12.3232 17.7304 13.2185 17.7287Z" fill="#8B1E3F"/>
</svg>
