<svg width="34" height="35" viewBox="0 0 34 35" fill="none" xmlns="http://www.w3.org/2000/svg">
<path d="M16.7637 2.7728C16.289 2.76887 15.815 2.8908 15.3956 3.14023C12.7029 4.73503 9.74077 6.65109 6.65792 8.51712C6.65589 8.51854 6.65385 8.51996 6.65182 8.52139C5.13578 9.45463 3.90716 10.9204 3.69591 12.687V12.6892C3.19585 16.9268 3.4161 21.1734 4.35459 25.404C4.35655 25.4112 4.35859 25.4183 4.36069 25.4254C4.64081 26.587 5.31606 27.6479 6.15375 28.5421C6.99144 29.4364 7.99299 30.1645 9.0995 30.4754C9.10625 30.4776 9.11303 30.4798 9.11983 30.4818C14.1341 31.7802 19.1738 31.7802 24.1881 30.4818C24.1949 30.4798 24.2016 30.4776 24.2084 30.4754C25.3149 30.1645 26.3165 29.4367 27.1541 28.5421C27.9918 27.6476 28.6677 26.5857 28.9472 25.4232C28.9486 25.4169 28.95 25.4104 28.9513 25.404C29.8919 21.1666 30.1132 16.9142 29.61 12.67L29.6079 12.6678C29.3968 10.9154 28.1841 9.45784 26.6825 8.52139C26.6805 8.51996 26.6784 8.51854 26.6764 8.51712C23.662 6.66746 20.7665 4.76375 18.1299 3.15945C17.7136 2.9057 17.2385 2.77672 16.7637 2.7728ZM16.7495 4.93253C16.8522 4.93356 16.9558 4.97341 17.0849 5.05215C19.6756 6.62848 22.5777 8.53428 25.6274 10.4055C26.682 11.0659 27.4507 12.1905 27.5424 12.9413C28.0148 16.9251 27.8104 20.8986 26.9265 24.8892C26.7786 25.5017 26.3017 26.3338 25.6701 27.0083C25.0385 27.6828 24.2563 28.1962 23.6737 28.3606C22.8963 28.5613 22.1221 28.5276 21.346 28.6618C21.8013 25.9036 21.8146 23.0412 21.2566 20.3112C21.2569 20.2271 21.248 20.1433 21.2301 20.0613C21.2238 20.0318 21.2164 20.0026 21.2078 19.9737C21.2064 19.968 21.2051 19.9623 21.2037 19.9566C21.2011 19.9481 21.1984 19.9395 21.1956 19.931C21.1929 19.9238 21.1902 19.9167 21.1874 19.9096C21.1776 19.8829 21.1667 19.8565 21.1549 19.8306C21.1402 19.7977 21.1239 19.7656 21.1061 19.7345C21.0116 19.5658 20.8757 19.4268 20.7126 19.3322C20.5496 19.2375 20.3653 19.1905 20.1791 19.1961C17.9287 18.1672 15.4199 18.1749 13.1695 19.2004C12.9193 19.1817 12.6712 19.2584 12.4706 19.4166C12.27 19.5748 12.1305 19.8037 12.0778 20.0613C12.0765 20.0669 12.077 20.0728 12.0757 20.0784C12.0601 20.1528 12.052 20.2287 12.0513 20.3048V20.3091C11.4929 23.0397 11.5064 25.9029 11.9619 28.6618C11.1858 28.5276 10.4116 28.5613 9.63417 28.3606C9.05152 28.1962 8.2696 27.6828 7.63781 27.0083C7.00721 26.3351 6.5307 25.5053 6.38144 24.8935C5.49929 20.9092 5.29228 16.9378 5.76139 12.9605V12.9583C5.85285 12.2007 6.6382 11.0643 7.70489 10.4077C10.8196 8.52212 13.7803 6.60589 16.4181 5.04361H16.4202C16.5451 4.96928 16.6468 4.9315 16.7495 4.93253ZM16.6539 20.5014C17.5479 20.4996 18.4208 20.7829 19.2622 21.1529C19.7319 23.703 19.7371 26.397 19.2338 28.9352C17.5151 29.0988 15.7928 29.0988 14.0741 28.9352C13.5717 26.4012 13.5764 23.7121 14.0436 21.1657C14.8843 20.7911 15.7587 20.5031 16.6539 20.5014Z" fill="#1A1A1A"/>
</svg>
