<svg width="27" height="31" viewBox="0 0 27 31" fill="none" xmlns="http://www.w3.org/2000/svg">
<path d="M13.6052 9.70138e-05C13.1206 -0.00405161 12.6367 0.124847 12.2086 0.388525C9.46006 2.07446 6.43633 4.10001 3.28943 6.07267C3.28735 6.07417 3.28527 6.07567 3.2832 6.07718C1.73566 7.06375 0.481506 8.61328 0.265869 10.4809V10.4831C-0.244587 14.9629 -0.0197593 19.4522 0.938232 23.9245C0.940237 23.9321 0.942312 23.9396 0.944458 23.9471C1.2304 25.1751 1.91969 26.2966 2.77478 27.242C3.62987 28.1873 4.65224 28.9571 5.78174 29.2857C5.78863 29.2881 5.79555 29.2903 5.80249 29.2925C10.9209 30.665 16.0654 30.665 21.1838 29.2925C21.1908 29.2903 21.1977 29.2881 21.2046 29.2857C22.3341 28.9571 23.3565 28.1876 24.2115 27.242C25.0666 26.2964 25.7566 25.1737 26.0419 23.9449C26.0433 23.9381 26.0447 23.9313 26.046 23.9245C27.0062 19.445 27.2321 14.9496 26.7184 10.4628L26.7163 10.4605C26.5008 8.60802 25.2629 7.06714 23.7301 6.07718C23.728 6.07567 23.726 6.07417 23.7239 6.07267C20.6468 4.11731 17.6912 2.10482 14.9998 0.408849C14.5749 0.140596 14.0899 0.00424587 13.6052 9.70138e-05ZM13.5907 2.28324C13.6955 2.28433 13.8012 2.32646 13.9331 2.4097C16.5776 4.07611 19.54 6.09081 22.6531 8.06901C23.7296 8.76707 24.5143 9.95596 24.6079 10.7496C25.0901 14.9611 24.8814 19.1617 23.9791 23.3803C23.8282 24.0278 23.3414 24.9075 22.6967 25.6205C22.0519 26.3336 21.2535 26.8762 20.6588 27.05C19.8653 27.2623 19.0749 27.2266 18.2827 27.3684C18.7475 24.4527 18.761 21.4267 18.1914 18.5407C18.1918 18.4518 18.1827 18.3632 18.1644 18.2765C18.158 18.2453 18.1504 18.2144 18.1416 18.1839C18.1403 18.1779 18.1389 18.1719 18.1375 18.1659C18.1348 18.1568 18.132 18.1478 18.1292 18.1388C18.1265 18.1312 18.1237 18.1237 18.1208 18.1162C18.1108 18.0879 18.0997 18.06 18.0876 18.0326C18.0726 17.9979 18.056 17.964 18.0378 17.931C17.9413 17.7527 17.8026 17.6058 17.6362 17.5057C17.4697 17.4056 17.2816 17.3559 17.0916 17.3619C14.7944 16.2742 12.2335 16.2823 9.93628 17.3664C9.68095 17.3466 9.42763 17.4278 9.22289 17.595C9.01816 17.7622 8.87577 18.0042 8.8219 18.2765C8.82062 18.2824 8.8211 18.2887 8.81982 18.2946C8.80389 18.3732 8.79554 18.4535 8.79492 18.534V18.5385C8.22488 21.4251 8.2387 24.4519 8.70361 27.3684C7.91143 27.2266 7.12107 27.2623 6.32751 27.05C5.73276 26.8762 4.9346 26.3335 4.28967 25.6205C3.64597 24.9089 3.15956 24.0316 3.0072 23.3848C2.10672 19.1729 1.89541 14.9746 2.37427 10.7699V10.7677C2.46763 9.9667 3.26929 8.76542 4.35815 8.07126C7.53762 6.07795 10.5598 4.05223 13.2524 2.40067H13.2545C13.3821 2.3221 13.4859 2.28215 13.5907 2.28324ZM13.4932 18.7417C14.4057 18.7399 15.2967 19.0393 16.1556 19.4305C16.6351 22.1263 16.6403 24.9742 16.1266 27.6575C14.3722 27.8304 12.6141 27.8304 10.8597 27.6575C10.3468 24.9787 10.3516 22.136 10.8286 19.4441C11.6867 19.048 12.5793 18.7435 13.4932 18.7417Z" fill="#1A1A1A"/>
</svg>
