<svg width="29" height="30" viewBox="0 0 29 30" fill="none" xmlns="http://www.w3.org/2000/svg">
<path d="M10.3925 0C4.6654 0 0 4.90242 0 10.9204C0 16.9384 4.6654 21.8408 10.3925 21.8408C12.217 21.8408 13.9315 21.3399 15.424 20.4672C16.0488 22.2943 17.3466 24.1775 18.8658 25.8206C20.7116 27.8169 22.8048 29.4949 24.9809 29.4949C25.8443 29.4949 26.6784 29.2322 27.266 28.6148C27.8535 27.9974 28.1035 27.1209 28.1035 26.2137C28.1035 23.9134 26.4698 21.7301 24.5581 19.8007C22.9809 18.209 21.193 16.8535 19.4919 16.1841C20.3145 14.6214 20.7849 12.8277 20.7849 10.9204C20.7849 4.90242 16.1195 0 10.3925 0ZM10.3925 2.1875C14.9944 2.1875 18.7032 6.08463 18.7032 10.9204C18.7032 15.7562 14.9944 19.6533 10.3925 19.6533C5.79046 19.6533 2.08174 15.7562 2.08174 10.9204C2.08174 6.08463 5.79046 2.1875 10.3925 2.1875ZM18.2376 18.0576C19.4703 18.4213 21.5036 19.7514 23.1167 21.3794C24.8293 23.1078 26.0218 25.2327 26.0218 26.2137C26.0218 26.7283 25.9091 26.9473 25.7941 27.0682C25.6791 27.1891 25.4707 27.3074 24.9809 27.3074C24.0344 27.3074 22.0051 26.079 20.358 24.2975C18.7982 22.6104 17.5373 20.4714 17.215 19.1364C17.5791 18.802 17.9209 18.4414 18.2376 18.0576Z" fill="#1A1A1A"/>
</svg>
