<svg width="34" height="35" viewBox="0 0 34 35" fill="none" xmlns="http://www.w3.org/2000/svg">
<path d="M16.6539 32.8125C24.7019 32.8125 31.2261 25.9569 31.2261 17.5C31.2261 9.04314 24.7019 2.1875 16.6539 2.1875C8.60592 2.1875 2.08173 9.04314 2.08173 17.5C2.08173 25.9569 8.60592 32.8125 16.6539 32.8125Z" stroke="#8B1E3F" stroke-width="2" stroke-miterlimit="10" stroke-linecap="round" stroke-linejoin="round"/>
<path d="M16.6539 19.6875C19.5282 19.6875 21.8583 17.2391 21.8583 14.2188C21.8583 11.1984 19.5282 8.75 16.6539 8.75C13.7797 8.75 11.4496 11.1984 11.4496 14.2188C11.4496 17.2391 13.7797 19.6875 16.6539 19.6875Z" stroke="#8B1E3F" stroke-width="2" stroke-miterlimit="10" stroke-linecap="round" stroke-linejoin="round"/>
<path d="M5.62073 27.4531C7.4943 22.9688 11.6578 19.7969 16.654 19.7969C21.6501 19.7969 25.9177 22.9688 27.6872 27.4531" stroke="#8B1E3F" stroke-width="2" stroke-miterlimit="10" stroke-linecap="round" stroke-linejoin="round"/>
</svg>
